<?xml version="1.0" standalone="no"?>
<!DOCTYPE svg PUBLIC "-//W3C//DTD SVG 20010904//EN"
 "http://www.w3.org/TR/2001/REC-SVG-20010904/DTD/svg10.dtd">
<svg version="1.0" xmlns="http://www.w3.org/2000/svg"
 width="157.000000pt" height="157.000000pt" viewBox="0 0 157.000000 157.000000"
 preserveAspectRatio="xMidYMid meet">
<metadata>
Created by potrace 1.14, written by Peter Selinger 2001-2017
</metadata>
<g transform="translate(0.000000,157.000000) scale(0.100000,-0.100000)"
fill="#000000" stroke="none">
<path d="M294 1469 c-39 -4 -88 -15 -108 -24 -54 -26 -120 -93 -147 -150 l-23
-50 -1 -455 0 -455 24 -49 c35 -69 101 -131 169 -156 55 -21 71 -22 583 -21
506 0 527 1 580 21 77 28 136 82 170 153 l28 59 0 438 c1 517 2 511 -88 601
-91 91 -83 90 -643 92 -260 1 -505 -1 -544 -4z m558 -313 c3 2 19 -9 37 -24
l33 -28 0 -307 c-1 -186 -5 -314 -11 -326 -31 -58 -167 -68 -221 -16 l-30 29
1 308 c0 275 2 310 18 329 21 26 106 49 143 39 14 -5 28 -6 30 -4z"/>
</g>
</svg>
